<?xml version="1.0" standalone="no"?>
<!DOCTYPE svg PUBLIC "-//W3C//DTD SVG 20010904//EN"
 "http://www.w3.org/TR/2001/REC-SVG-20010904/DTD/svg10.dtd">
<svg version="1.0" xmlns="http://www.w3.org/2000/svg"
 width="512.000000pt" height="512.000000pt" viewBox="0 0 512.000000 512.000000"
 preserveAspectRatio="xMidYMid meet">
<metadata>
Created by potrace 1.14, written by Peter Selinger 2001-2017
</metadata>
<g transform="translate(0.000000,512.000000) scale(0.100000,-0.100000)"
fill="#000000" stroke="none">
<path d="M1 4373 l0 -748 19 72 c19 71 41 121 79 178 41 61 136 145 201 179
131 69 105 67 937 73 l753 6 0 -1997 0 -1996 -517 0 c-579 0 -602 2 -733 66
-97 48 -204 153 -248 245 -65 133 -62 65 -62 1366 0 1118 -1 1184 -17 1190
-94 31 -174 82 -243 152 -86 87 -122 148 -150 253 -19 73 -19 66 -19 -1669
l-1 -1743 2560 0 2560 0 -1 1743 c-1 1526 -2 1735 -15 1683 -39 -161 -159
-310 -304 -378 -41 -20 -83 -38 -92 -41 -17 -6 -18 -72 -18 -1190 0 -1301 3
-1233 -62 -1366 -44 -92 -151 -197 -248 -245 -131 -64 -154 -66 -732 -66
l-518 0 0 1996 0 1997 753 -6 c832 -6 806 -4 937 -73 65 -34 160 -118 201
-179 38 -57 60 -107 79 -178 l19 -72 0 748 1 747 -2560 0 -2560 0 1 -747z"/>
</g>
</svg>
